<svg xmlns="http://www.w3.org/2000/svg" width="560" height="416" fill="none"><path fill="#648EEF" fill-rule="evenodd" d="M515.125 343.845h-32.973v-.004a9.408 9.408 0 0 1-9.17-9.41 9.409 9.409 0 0 1 9.17-9.411v-.003h55L556 334.464l-18.848 9.381h-22.027ZM454.132 325.034v18.827l18.848-9.38-18.848-9.447Z" clip-rule="evenodd"/><path fill="#22244E" d="M537.149 336.817a2.371 2.371 0 1 0 0-4.74 2.371 2.371 0 1 0 0 4.74Z"/><path fill="#648EEF" fill-rule="evenodd" d="M455.993 382.983H423.02v-.003a9.408 9.408 0 0 1-9.17-9.41 9.408 9.408 0 0 1 9.17-9.411v-.003h55l18.848 9.447-18.848 9.38h-22.027ZM395 364.173V383l18.848-9.38L395 364.173Z" clip-rule="evenodd"/><path fill="#22244E" d="M478.017 375.956a2.372 2.372 0 0 0 2.373-2.37 2.372 2.372 0 0 0-2.373-2.37 2.371 2.371 0 1 0 0 4.74Z"/><path fill="#E3DFD2" fill-rule="evenodd" d="M138 68.5C130.078 57 105.187 34 69 34S7.922 57 0 68.5C7.922 80 32.813 103 69 103s61.078-23 69-34.5Z" clip-rule="evenodd"/><path fill="#8FADF4" d="M69 103c-19.054 0-34.5-15.446-34.5-34.5C34.5 49.446 49.946 34 69 34c19.054 0 34.5 15.446 34.5 34.5 0 19.054-15.446 34.5-34.5 34.5Z"/><path fill="#22244E" d="M68.998 91.5c-12.703 0-23-10.297-23-23s10.297-23 23-23 23 10.297 23 23-10.297 23-23 23Z"/></svg>